<svg width="25" height="34" viewBox="0 0 25 34" fill="none" xmlns="http://www.w3.org/2000/svg">
<path d="M11.5786 32.5888C11.7848 32.8914 12.1309 33.0719 12.5 33.0719C12.8691 33.0719 13.2152 32.8915 13.4213 32.5889C14.1429 31.5301 14.9767 30.3875 15.8535 29.1861C17.7189 26.63 19.7787 23.8075 21.3649 20.9593C23.2327 17.6053 24.15 14.7289 24.15 12.1719C24.15 5.88269 18.9208 0.771875 12.5 0.771875C6.07918 0.771875 0.85 5.88269 0.85 12.1719C0.85 14.7289 1.76729 17.6053 3.63515 20.9593C5.22067 23.8063 7.28389 26.6337 9.15015 29.1911C10.0263 30.3918 10.8591 31.533 11.5786 32.5888ZM12.5 2.94688C17.7045 2.94688 21.9333 7.08843 21.9333 12.1719C21.9333 14.3357 21.118 16.8667 19.4197 19.9163C17.8982 22.6483 15.884 25.4083 14.0446 27.9287C13.5095 28.662 12.9891 29.375 12.5 30.0612C12.011 29.3751 11.4907 28.6622 10.9555 27.9289C9.11626 25.4087 7.1019 22.6485 5.58034 19.9163C3.88196 16.8667 3.06667 14.3357 3.06667 12.1719C3.06667 7.08843 7.29547 2.94688 12.5 2.94688Z" fill="#161616" stroke="#161616" stroke-width="0.3"/>
<path d="M12.5 17.9469C15.7503 17.9469 18.4 15.3594 18.4 12.1719C18.4 8.98432 15.7503 6.39687 12.5 6.39687C9.24973 6.39687 6.6 8.98432 6.6 12.1719C6.6 15.3594 9.24973 17.9469 12.5 17.9469ZM12.5 8.57188C14.534 8.57188 16.1833 10.1901 16.1833 12.1719C16.1833 14.1537 14.534 15.7719 12.5 15.7719C10.466 15.7719 8.81667 14.1537 8.81667 12.1719C8.81667 10.1901 10.466 8.57188 12.5 8.57188Z" fill="#161616" stroke="#161616" stroke-width="0.3"/>
</svg>
