<?xml version="1.0" encoding="UTF-8" standalone="no"?>
<!-- Created with Inkscape (http://www.inkscape.org/) -->

<svg
   version="1.1"
   id="svg554"
   xml:space="preserve"
   width="155.43599"
   height="181.088"
   viewBox="0 0 155.43599 181.088"
   sodipodi:docname="logo-anct.svg"
   inkscape:version="1.1.2 (0a00cf5339, 2022-02-04)"
   xmlns:inkscape="http://www.inkscape.org/namespaces/inkscape"
   xmlns:sodipodi="http://sodipodi.sourceforge.net/DTD/sodipodi-0.dtd"
   xmlns="http://www.w3.org/2000/svg"
   xmlns:svg="http://www.w3.org/2000/svg"><defs
     id="defs558" /><sodipodi:namedview
     id="namedview556"
     pagecolor="#ffffff"
     bordercolor="#666666"
     borderopacity="1.0"
     inkscape:pageshadow="2"
     inkscape:pageopacity="0.0"
     inkscape:pagecheckerboard="0"
     showgrid="false"
     fit-margin-top="0"
     fit-margin-left="0"
     fit-margin-right="0"
     fit-margin-bottom="0"
     inkscape:zoom="2.6215684"
     inkscape:cx="162.8796"
     inkscape:cy="110.81153"
     inkscape:window-width="2560"
     inkscape:window-height="1376"
     inkscape:window-x="0"
     inkscape:window-y="0"
     inkscape:window-maximized="1"
     inkscape:current-layer="g604" /><g
     id="g560"
     inkscape:groupmode="layer"
     inkscape:label="ink_ext_XXXXXX"
     transform="matrix(1.3333333,0,0,-1.3333333,-268.93866,190.82133)"><path
       d="m 231.203,90.3727 c 5.315,0 9.45,2.5304 11.981,6.58 v 7.3403 l -11.473,-1.941 c -5.317,-0.929 -7.511,-3.2055 -7.511,-6.4106 0,-3.2922 2.616,-5.5687 7.003,-5.5687 m -15.776,5.2296 c 0,6.4137 4.976,11.0547 14.003,12.5717 l 13.754,2.279 v 2.191 c 0,5.234 -3.881,8.44 -9.367,8.44 -4.64,0 -8.266,-2.11 -10.715,-5.57 l -6.495,4.978 c 3.796,5.063 9.872,8.268 17.466,8.268 11.471,0 17.801,-6.749 17.801,-16.116 V 84.55 h -8.69 v 4.8094 c -3.037,-3.7125 -8.353,-6.0746 -13.583,-6.0746 -8.437,0 -14.174,4.809 -14.174,12.3175"
       style="fill:#2c3c88;fill-opacity:1;fill-rule:nonzero;stroke:none;stroke-width:0.1"
       id="path568" /><path
       d="m 256.599,127.073 h 8.69 v -4.134 c 3.205,3.375 7.424,5.822 13.5,5.822 9.363,0 16.534,-6.328 16.534,-18.646 V 84.5512 h -8.774 v 25.2268 c 0,6.749 -3.71,10.8 -9.787,10.8 -5.822,0 -9.281,-3.629 -11.473,-7.34 V 84.5512 h -8.69 v 42.5218"
       style="fill:#2c3c88;fill-opacity:1;fill-rule:nonzero;stroke:none;stroke-width:0.1"
       id="path570" /><path
       d="m 250.599,45.7121 7.001,-5.359 c -3.977,-5.3582 -10.371,-8.8133 -18.408,-8.8133 -14.605,0 -23.767,10.8024 -23.767,23.5055 0,12.7039 9.162,23.5059 23.767,23.5059 7.95,0 14.431,-3.4571 18.408,-8.8157 l -7.001,-5.3582 c -2.42,3.3719 -6.396,5.7911 -11.407,5.7911 -8.383,0 -14.433,-6.568 -14.433,-15.1231 0,-8.6433 6.05,-15.1242 14.518,-15.1242 4.926,0 8.902,2.4211 11.322,5.791"
       style="fill:#2c3c88;fill-opacity:1;fill-rule:nonzero;stroke:none;stroke-width:0.1"
       id="path572" /><path
       d="m 271.334,67.9023 h -9.44 v 7.8457 h 9.44 v 10.6301 h 8.773 V 75.748 h 15.217 V 67.9023 H 280.107 V 47.9906 c 0,-5.7375 3.039,-7.5937 7.764,-7.5937 2.868,0 5.934,0.3371 7.453,0.9281 v -7.677 c -2.025,-0.8449 -5.513,-1.2671 -8.803,-1.2671 -9.956,0 -15.187,5.232 -15.187,15.6097 v 19.9117"
       style="fill:#2c3c88;fill-opacity:1;fill-rule:nonzero;stroke:none;stroke-width:0.1"
       id="path574" /><path
       d="m 300.909,134.601 v -5.842 h 8.138 v 8.194 c 0,2.958 -2.314,5.424 -5.263,5.614 l -8.46,0.549 v -8.153 l 5.585,-0.362"
       style="fill:#2c3c88;fill-opacity:1;fill-rule:nonzero;stroke:none;stroke-width:0.1"
       id="path576" /><path
       d="m 209.841,134.601 5.585,0.362 v 8.153 l -8.46,-0.549 c -2.951,-0.19 -5.262,-2.656 -5.262,-5.614 v -8.194 h 8.137 v 5.842"
       style="fill:#2c3c88;fill-opacity:1;fill-rule:nonzero;stroke:none;stroke-width:0.1"
       id="path578" /><path
       d="m 209.841,25.6988 v 5.841 h -8.137 v -8.1949 c 0,-2.9558 2.311,-5.423 5.262,-5.614 l 8.46,-0.5469 v 8.1531 l -5.585,0.3617"
       style="fill:#2c3c88;fill-opacity:1;fill-rule:nonzero;stroke:none;stroke-width:0.1"
       id="path580" /><path
       d="M 308.417,17.948 273.084,17.1828 V 7.3 l 38.069,0.94414 c 3.992,0.26172 7.128,3.60276 7.128,7.60896 v 37.7375 h -9.864 V 17.948"
       style="fill:#7d92cd;fill-opacity:1;fill-rule:nonzero;stroke:none;stroke-width:0.1"
       id="path582" /><g
       id="g604" /></g></svg>
